<svg xmlns="http://www.w3.org/2000/svg" viewBox="0 0 451.12 72.23"><title>Asset 1</title><g id="Layer_2" data-name="Layer 2"><g id="Warstwa_1" data-name="Warstwa 1"><path d="M178.06,58.15H150.58V3.2q-.14-2.07-2.07-2.07h-9.58a2.1,2.1,0,0,0-1.58.61,2,2,0,0,0-.59,1.46V68.9A1.83,1.83,0,0,0,138.84,71h39.22q2.07-.14,2.07-2.07v-8.6a2.08,2.08,0,0,0-.61-1.57A2,2,0,0,0,178.06,58.15Z"/><path d="M250.6,18a34.77,34.77,0,0,0-5.61-7.3,36,36,0,0,0-7.29-5.62,37.54,37.54,0,0,0-8.58-3.62,36.21,36.21,0,0,0-19.11,0,37.71,37.71,0,0,0-8.57,3.62A36.17,36.17,0,0,0,185,26.6a36.69,36.69,0,0,0,0,19.12,34.45,34.45,0,0,0,3.62,8.54,35.75,35.75,0,0,0,5.61,7.24,36.4,36.4,0,0,0,7.26,5.61A35.16,35.16,0,0,0,210,70.73a36.63,36.63,0,0,0,19.11,0,35,35,0,0,0,8.58-3.62A37,37,0,0,0,245,61.51a35.21,35.21,0,0,0,5.61-7.24,36.91,36.91,0,0,0,3.62-8.54,36.27,36.27,0,0,0,0-19.12A37.83,37.83,0,0,0,250.6,18ZM239.72,45.07a22.9,22.9,0,0,1-4.55,7.26,20.94,20.94,0,0,1-6.93,4.87,21.61,21.61,0,0,1-24.44-4.87,22.6,22.6,0,0,1-4.54-7.26,25.47,25.47,0,0,1,0-17.87,22.25,22.25,0,0,1,4.54-7.29,21.68,21.68,0,0,1,6.9-4.9,22.05,22.05,0,0,1,17.54,0,21.48,21.48,0,0,1,6.93,4.9,22.55,22.55,0,0,1,4.55,7.29,25,25,0,0,1,0,17.87Z"/><path d="M320.67,1.79a2.64,2.64,0,0,0-1.6-.56h-9.3a2.19,2.19,0,0,0-1.57.61,2,2,0,0,0-.64,1.46V43.4a17.74,17.74,0,0,1-1.08,6.2,15.56,15.56,0,0,1-3.05,5.1,14.53,14.53,0,0,1-4.7,3.45,14.06,14.06,0,0,1-6,1.27,14.23,14.23,0,0,1-6-1.27A14.38,14.38,0,0,1,282,54.69a15.65,15.65,0,0,1-3.06-5.1,17.64,17.64,0,0,1-1.08-6.2V3.29a1.83,1.83,0,0,0-.76-1.46,2.29,2.29,0,0,0-1.41-.61h-9.72a1.76,1.76,0,0,0-1.41.68A2.18,2.18,0,0,0,264,3.29V43.4A27.94,27.94,0,0,0,265,51a28.81,28.81,0,0,0,2.91,6.86,28.44,28.44,0,0,0,4.5,5.8,29.62,29.62,0,0,0,5.83,4.49,28.9,28.9,0,0,0,6.86,2.91,28.57,28.57,0,0,0,18.74-1.22,29.07,29.07,0,0,0,15.31-15.31,27.71,27.71,0,0,0,2.25-11.13V3.29A1.8,1.8,0,0,0,320.67,1.79Z"/><path d="M388.8,18.32a32.93,32.93,0,0,0-5.62-7.06,36.35,36.35,0,0,0-15.79-8.87,38.43,38.43,0,0,0-9.52-1.27h-21.6c-1.51,0-2.26.78-2.26,2.35V69.1a2.12,2.12,0,0,0,.21,1,1.26,1.26,0,0,0,.56.57,2.08,2.08,0,0,0,.72.23,6.4,6.4,0,0,0,.76,0h21.6a37.9,37.9,0,0,0,9.53-1.19A36.36,36.36,0,0,0,376,66.36,34.15,34.15,0,0,0,383.21,61a35,35,0,0,0,5.61-7,33.42,33.42,0,0,0,3.62-8.36,34.92,34.92,0,0,0,1.27-9.47,34.36,34.36,0,0,0-1.28-9.44A35.88,35.88,0,0,0,388.8,18.32ZM377.85,45a21.15,21.15,0,0,1-4.9,7,22.27,22.27,0,0,1-7.26,4.54,24.08,24.08,0,0,1-8.86,1.62h-9V13.85h9a24.46,24.46,0,0,1,8.86,1.73,22,22,0,0,1,7.26,4.63,21.54,21.54,0,0,1,4.9,7,21.76,21.76,0,0,1,1.82,8.92A21.45,21.45,0,0,1,377.85,45Z"/><path d="M449,41.36a20.1,20.1,0,0,0-5.47-5.75,35.21,35.21,0,0,0-7.68-4.06q-4.3-1.67-8.71-3-2.58-.75-4.93-1.57a26.11,26.11,0,0,1-4.16-1.83,10,10,0,0,1-2.87-2.28,4.51,4.51,0,0,1-1.06-3,6.27,6.27,0,0,1,.7-2.91,7,7,0,0,1,2.07-2.37,10.67,10.67,0,0,1,3.38-1.6A16.72,16.72,0,0,1,425,12.4a12.86,12.86,0,0,1,4.06.66,23.46,23.46,0,0,1,6.88,3.62,24.25,24.25,0,0,1,2.3,2l.09,0a10.5,10.5,0,0,0,1.17.82,2.15,2.15,0,0,0,1.13.31,2,2,0,0,0,1-.42c.4-.28.86-.63,1.36-1.06a18.66,18.66,0,0,0,1.5-1.43L446,15.36v0l1.4-1.5a6.19,6.19,0,0,0,.7-1.06,2.44,2.44,0,0,0,.28-1.15,2.68,2.68,0,0,0-.64-1.48,12.57,12.57,0,0,0-1.62-1.79q-1-.92-2.16-1.81T441.63,5a34,34,0,0,0-8.18-3.69A29.76,29.76,0,0,0,424.77,0a33.89,33.89,0,0,0-10.19,1.43,24.08,24.08,0,0,0-7.79,4A17.43,17.43,0,0,0,400,19.54a16.67,16.67,0,0,0,1.43,7,16.83,16.83,0,0,0,4.3,5.64,30.37,30.37,0,0,0,7.16,4.53,74.72,74.72,0,0,0,10,3.76q2.49.7,5,1.5a24.57,24.57,0,0,1,4.44,1.9,11,11,0,0,1,3.19,2.58A5.38,5.38,0,0,1,436.75,50a7.56,7.56,0,0,1-.94,3.76,8.9,8.9,0,0,1-2.58,2.89,12.51,12.51,0,0,1-3.9,1.86,17.23,17.23,0,0,1-4.84.66,14.12,14.12,0,0,1-4-.63,25.09,25.09,0,0,1-4.3-1.74A36.92,36.92,0,0,1,412,54.29a31.13,31.13,0,0,1-3.69-3h0l-.19-.19a8.49,8.49,0,0,0-.94-.8,2,2,0,0,0-1.22-.42,2.29,2.29,0,0,0-1.1.42c-.46.28-.95.63-1.48,1a19.44,19.44,0,0,0-1.6,1.36q-.8.75-1.5,1.36l-.89.85-.65.7a3,3,0,0,0-1.13,2,3.43,3.43,0,0,0,1,2.16l.1.19v0A31.27,31.27,0,0,0,404,64.89a36.34,36.34,0,0,0,6.22,3.73A34.93,34.93,0,0,0,417.07,71a31,31,0,0,0,7.18.85,34.28,34.28,0,0,0,10.54-1.57,26.2,26.2,0,0,0,8.55-4.51,21.16,21.16,0,0,0,5.71-7.07,20.44,20.44,0,0,0,2.07-9.25A15.07,15.07,0,0,0,449,41.36Z"/><path d="M74.25,54.46A36.2,36.2,0,0,1,70.63,26.8a36.62,36.62,0,0,1,3.62-8.6,36.25,36.25,0,0,1,5.61-7.3,34,34,0,0,1,3.36-3A35.78,35.78,0,0,0,29.63,20.37V3.29A1.93,1.93,0,0,0,29,1.78a2.37,2.37,0,0,0-1.6-.57H15.84a26.87,26.87,0,0,0-3,.14,5.79,5.79,0,0,0-2.4.95L2.06,7.4A3.32,3.32,0,0,0,0,10.32v13a2.59,2.59,0,0,0,.49,1.56,1.64,1.64,0,0,0,1.39.66,2.14,2.14,0,0,0,.81-.24l8.39-5.15v49a2.27,2.27,0,0,0,.46,1.34,1.82,1.82,0,0,0,1.62.64H27.43c1.47,0,2.2-.7,2.2-2.08V52.52A35.78,35.78,0,0,0,83.42,64.81a36.25,36.25,0,0,1-9.16-10.34Z"/><path d="M92.12,17.74a22.84,22.84,0,0,0-2.66,2.35,22.28,22.28,0,0,0-4.52,7.29,24.52,24.52,0,0,0-1.62,9,24.14,24.14,0,0,0,1.62,8.91,22.14,22.14,0,0,0,4.52,7.26A21.08,21.08,0,0,0,92.24,55a35.83,35.83,0,0,0-.12-37.21Z"/><path d="M105.15,13.39a21.69,21.69,0,0,1,7.21,1.18,24.43,24.43,0,0,1,6.32,3.28,2.39,2.39,0,0,0,1.68.47,2.61,2.61,0,0,0,1.42-1.08l4.55-7.74a1.9,1.9,0,0,0,.14-1.79,2.88,2.88,0,0,0-1.16-1.22,36.68,36.68,0,0,0-9.46-4.54A35.15,35.15,0,0,0,105.24.38a34.74,34.74,0,0,0-9.56,1.3,36.88,36.88,0,0,0-8.55,3.6,32.43,32.43,0,0,0-3.9,2.66c.45.34.88.7,1.31,1.07.84.71,1.66,1.45,2.43,2.22a1.43,1.43,0,0,1,.15.15c.35.34.67.69,1,1,.7.78,1.36,1.57,2,2.4a.72.72,0,0,1,.14.18l0,0,.43.6c.2.26.38.53.57.81.29.43.57.86.84,1.3a21.9,21.9,0,0,1,4.25-2.55A21.06,21.06,0,0,1,105.15,13.39Z"/><path d="M121.88,55.23a2.33,2.33,0,0,0-1.39-1,2.77,2.77,0,0,0-1.71.52A23.14,23.14,0,0,1,112.44,58a22.76,22.76,0,0,1-7.29,1.18,21.29,21.29,0,0,1-8.78-1.79A21.74,21.74,0,0,1,92.24,55c-.58.95-1.19,1.88-1.86,2.76-.32.46-.67.89-1,1.31s-.7.86-1.07,1.27-.75.81-1.15,1.21-.78.79-1.19,1.16-.82.73-1.24,1.1-.86.7-1.3,1a36.68,36.68,0,0,0,3.71,2.51A36.22,36.22,0,0,0,116,70.56,36.23,36.23,0,0,0,125.5,66a3.05,3.05,0,0,0,1.16-1.18,1.81,1.81,0,0,0-.14-1.74Z"/></g></g></svg>